<!-- Ant by Lele Saa from the Noun Project -->
<svg xmlns="http://www.w3.org/2000/svg" viewBox="0 0 90 112.5"><path fill="#be0000" d="M62.387 60.396c1.02 1.247 2.776-.53 1.766-1.766-3.195-3.903-7.12-5.757-11.365-3.646a9.143 9.143 0 0 0-3.833-3.475 6.98 6.98 0 0 0 3.02-5.537c5.213-.56 9.44-3.013 12.267-7.65.84-1.38-1.32-2.634-2.156-1.26-2.42 3.97-6.005 6.01-10.478 6.434a7 7 0 0 0-3.85-4.162c3.143-1.132 5.394-4.13 5.394-7.66a8.108 8.108 0 0 0-1.01-3.93c.97-.64 1.698-1.824 2.136-2.8 1.048-2.33.998-5.1-.963-6.924-1.178-1.094-2.947.668-1.766 1.767 1.062.99 1.064 2.232.683 3.554-.183.637-.524 1.21-.897 1.75-.21.304-.827.575-.54.643a1.374 1.374 0 0 0-.268-.036 8.11 8.11 0 0 0-11.052 0 1.374 1.374 0 0 0-.27.036c.282-.066-.13-.2-.37-.45-.426-.44-.73-1.052-.954-1.616-.54-1.362-.552-2.834.572-3.88 1.182-1.098-.588-2.86-1.766-1.765-1.883 1.75-1.993 4.34-1.09 6.626.422 1.063 1.204 2.404 2.264 3.098a8.108 8.108 0 0 0-1.01 3.93c0 3.53 2.25 6.528 5.392 7.66a7 7 0 0 0-3.85 4.162c-4.47-.424-8.057-2.465-10.476-6.435-.836-1.373-2.996-.12-2.156 1.26 2.826 4.64 7.053 7.09 12.265 7.65a6.973 6.973 0 0 0 3.02 5.537 9.16 9.16 0 0 0-3.832 3.475c-4.245-2.11-8.17-.258-11.364 3.646-1.01 1.236.746 3.014 1.767 1.767 1.52-1.856 3.362-3.892 5.928-3.998.96-.04 1.86.333 2.688.824a9.07 9.07 0 0 0-.356 2.503c0 1.17.23 2.287.63 3.315-4.397.87-7.638 3.178-9.743 7.387-.718 1.435 1.436 2.7 2.156 1.26 1.956-3.91 4.758-5.7 8.884-6.367a9.1 9.1 0 0 0 14.398 0c4.127.666 6.93 2.456 8.885 6.366.72 1.44 2.874.175 2.156-1.26-2.105-4.21-5.346-6.518-9.745-7.388a9.083 9.083 0 0 0 .63-3.315c0-.863-.127-1.694-.35-2.485.704-.41 1.448-.737 2.28-.83 2.675-.294 4.81 2.13 6.33 3.984z"/></svg>
